<svg width="49" height="49" viewBox="0 0 49 49" fill="none" xmlns="http://www.w3.org/2000/svg">
<g clip-path="url(#clip0_26_202)">
<path d="M17.0701 1.61153C12.1742 3.30995 7.95201 6.53361 5.02368 10.809C2.09534 15.0844 0.615208 20.1861 0.800684 25.3649C0.986161 30.5437 2.82747 35.5265 6.05415 39.5814C9.28084 43.6364 13.7228 46.5497 18.7276 47.8936C22.7851 48.9405 27.0362 48.9865 31.1154 48.0275C34.8108 47.1975 38.2273 45.422 41.0303 42.8749C43.9476 40.1429 46.0652 36.6675 47.1553 32.8222C48.3402 28.6407 48.551 24.2432 47.7716 19.9674H24.9866V29.419H38.1822C37.9184 30.9265 37.3533 32.3653 36.5206 33.6492C35.6878 34.9332 34.6046 36.036 33.3358 36.8915C31.7244 37.9574 29.908 38.6746 28.0032 38.997C26.0927 39.3522 24.1332 39.3522 22.2227 38.997C20.2864 38.5967 18.4547 37.7975 16.8442 36.6504C14.257 34.8189 12.3143 32.2171 11.2934 29.2161C10.2553 26.159 10.2553 22.8446 11.2934 19.7875C12.0201 17.6445 13.2214 15.6934 14.8076 14.0797C16.6229 12.1992 18.9211 10.8549 21.45 10.1945C23.979 9.53405 26.641 9.58296 29.144 10.3358C31.0992 10.936 32.8873 11.9847 34.3655 13.3983C35.8534 11.9181 37.3387 10.4341 38.8215 8.94622C39.5871 8.14614 40.4216 7.38435 41.1758 6.56513C38.9193 4.46531 36.2707 2.83139 33.3817 1.757C28.1207 -0.15327 22.3643 -0.204607 17.0701 1.61153Z" fill="white"/>
<path d="M17.0697 1.61169C22.3635 -0.20569 28.1199 -0.155705 33.3813 1.75333C36.2709 2.83502 38.9183 4.4768 41.1716 6.58442C40.4059 7.40364 39.5982 8.16926 38.8173 8.96551C37.332 10.4483 35.8479 11.9259 34.3652 13.3985C32.8869 11.9849 31.0989 10.9362 29.1436 10.336C26.6414 9.58047 23.9795 9.52874 21.4499 10.1865C18.9203 10.8442 16.6207 12.186 14.8034 14.0646C13.2172 15.6783 12.0159 17.6294 11.2892 19.7723L3.35352 13.6282C6.19402 7.99532 11.1122 3.68662 17.0697 1.61169Z" fill="#E33629"/>
<path d="M1.24811 19.7149C1.67465 17.601 2.38278 15.5538 3.35358 13.6282L11.2893 19.7876C10.2512 22.8448 10.2512 26.1591 11.2893 29.2163C8.64533 31.258 6.00009 33.3098 3.35358 35.3719C0.9233 30.5344 0.182106 25.0226 1.24811 19.7149Z" fill="#F8BD00"/>
<path d="M24.9861 19.9636H47.7711C48.5505 24.2394 48.3396 28.6369 47.1547 32.8185C46.0646 36.6637 43.9471 40.1392 41.0297 42.8711C38.4687 40.8728 35.8962 38.8899 33.3352 36.8916C34.6049 36.0352 35.6886 34.9312 36.5214 33.6458C37.3542 32.3605 37.9189 30.9203 38.1816 29.4114H24.9861C24.9822 26.2647 24.9861 23.1142 24.9861 19.9636Z" fill="#587DBD"/>
<path d="M3.34961 35.3719C5.99612 33.3303 8.64135 31.2784 11.2853 29.2163C12.3082 32.2183 14.2537 34.8203 16.8438 36.6505C18.4592 37.7923 20.2949 38.585 22.2338 38.978C24.1442 39.3333 26.1038 39.3333 28.0142 38.978C29.9191 38.6556 31.7355 37.9384 33.3468 36.8726C35.9078 38.8708 38.4803 40.8538 41.0413 42.8521C38.2387 45.4006 34.8222 47.1774 31.1265 48.0086C27.0473 48.9675 22.7962 48.9216 18.7387 47.8746C15.5296 47.0177 12.532 45.5073 9.93398 43.4378C7.18409 41.2546 4.93811 38.5032 3.34961 35.3719Z" fill="#319F43"/>
</g>
<defs>
<clipPath id="clip0_26_202">
<rect width="49" height="49" fill="white"/>
</clipPath>
</defs>
</svg>
