<svg width="238" height="238" viewBox="0 0 238 238" fill="none" xmlns="http://www.w3.org/2000/svg">
<ellipse cx="124.384" cy="119.008" rx="99.2193" ry="102.122" fill="url(#paint0_linear_27_5)"/>
<path d="M207.125 117.99L193.348 109.059C191.227 99.9939 187.371 91.3936 182.002 83.7537C176.633 76.1137 169.857 69.5853 162.066 64.5448C154.283 59.4871 145.635 56.0154 136.619 54.3301C127.604 52.6448 118.401 52.7791 109.54 54.7254L95.7699 45.7984C107.526 41.375 120.216 39.8262 132.831 41.2749C145.446 42.7235 157.639 47.1298 168.441 54.1438C179.249 61.1428 188.373 70.5574 195.088 81.6403C201.803 92.7232 205.924 105.169 207.125 117.99ZM66.8172 85.1651C68.2523 82.8204 69.802 80.5953 71.4664 78.4897L60.9738 71.6874C59.3501 73.8322 57.8213 76.0709 56.3873 78.4033C32.9345 116.723 45.0803 167.987 83.5161 192.905C119.6 216.298 166.026 208.152 190.981 175.35L184.336 171.042L180.09 177.979L174.99 174.673C163.003 186.509 147.026 193.343 130.09 193.879C113.153 194.415 96.4321 188.617 83.097 177.583C69.7619 166.549 60.739 151.046 57.7385 134.012C54.7379 116.978 57.9683 99.5981 66.8172 85.1651ZM106.86 154.747C102.113 151.679 98.0855 147.575 95.0829 142.744C92.0802 137.913 90.1812 132.483 89.5298 126.865C89.4509 126.04 89.211 125.235 88.824 124.497C88.437 123.758 87.9107 123.102 87.2761 122.566C86.6415 122.029 85.9113 121.624 85.1284 121.374C84.3455 121.123 83.5258 121.033 82.7172 121.108C81.9087 121.183 81.1277 121.421 80.42 121.81C79.7124 122.198 79.0924 122.728 78.5965 123.369C78.1005 124.01 77.7386 124.749 77.532 125.542C77.3254 126.336 77.2783 127.167 77.3934 127.989C78.2646 135.476 80.7969 142.712 84.7986 149.151C88.8004 155.589 94.1667 161.061 100.492 165.152C106.799 169.251 113.9 171.867 121.26 172.804C128.619 173.742 136.044 172.975 142.974 170.563C143.727 170.303 144.418 169.893 145.007 169.356C145.596 168.82 146.072 168.168 146.408 167.438C146.743 166.707 146.932 165.913 146.963 165.1C146.994 164.286 146.866 163.47 146.588 162.698C146.309 161.926 145.885 161.213 145.34 160.599C144.794 159.985 144.138 159.483 143.409 159.121C142.68 158.76 141.891 158.545 141.089 158.491C140.287 158.436 139.486 158.542 138.733 158.803C133.531 160.61 127.958 161.184 122.434 160.479C116.911 159.775 111.581 157.812 106.846 154.738M84.5663 48.2246L216.767 133.931L204.031 154.742L197.073 150.231L188.581 164.105L181.623 159.594L177.378 166.531L142.588 143.977L146.834 137.04L139.876 132.529L148.367 118.655L134.451 109.633L125.96 123.507L119.002 118.997L114.756 125.934L79.9665 103.379L84.2121 96.4423L77.2542 91.9314L85.7454 78.0574L78.7874 73.5465L83.0331 66.6095L69.1172 57.5878L73.3628 50.6508L80.3207 55.1616L84.5663 48.2246ZM57.9136 60.0139L62.1592 53.0769L69.1172 57.5878L64.8715 64.5248L57.9136 60.0139ZM57.9136 60.0139L50.9556 55.5031L42.4644 69.3771L49.4224 73.888L57.9136 60.0139ZM103.907 80.1421L96.949 75.6312L92.7033 82.5682L99.6613 87.0791L95.4157 94.0161L102.374 98.5269L106.619 91.5899L99.6613 87.0791L103.907 80.1421ZM166.528 120.74L159.571 116.229L155.325 123.166L162.283 127.677L158.037 134.614L164.995 139.125L169.241 132.188L162.283 127.677L166.528 120.74Z" fill="url(#paint1_linear_27_5)"/>
<defs>
<linearGradient id="paint0_linear_27_5" x1="104.499" y1="94" x2="40.499" y2="250" gradientUnits="userSpaceOnUse">
<stop stop-color="#7DCB80"/>
<stop offset="1" stop-color="#2F983D"/>
</linearGradient>
<linearGradient id="paint1_linear_27_5" x1="161.462" y1="49.6194" x2="72.9928" y2="186.083" gradientUnits="userSpaceOnUse">
<stop stop-color="#BAF0A9"/>
<stop offset="1" stop-color="#F9F77B"/>
</linearGradient>
</defs>
</svg>
