<svg width="238" height="238" viewBox="0 0 238 238" fill="none" xmlns="http://www.w3.org/2000/svg">
<ellipse cx="124.385" cy="119.008" rx="99.2193" ry="102.122" fill="url(#paint0_linear_29_68)"/>
<path d="M207.126 117.99L193.349 109.059C191.228 99.9939 187.372 91.3936 182.003 83.7537C176.634 76.1137 169.858 69.5853 162.067 64.5448C154.284 59.4871 145.636 56.0154 136.62 54.3301C127.605 52.6448 118.402 52.7791 109.541 54.7254L95.7709 45.7984C107.527 41.375 120.217 39.8262 132.832 41.2749C145.447 42.7235 157.64 47.1298 168.442 54.1438C179.25 61.1428 188.374 70.5574 195.089 81.6403C201.804 92.7232 205.925 105.169 207.126 117.99ZM66.8182 85.1651C68.2532 82.8204 69.803 80.5953 71.4674 78.4897L60.9748 71.6874C59.3511 73.8322 57.8222 76.0709 56.3882 78.4033C32.9355 116.723 45.0813 167.987 83.517 192.905C119.601 216.298 166.027 208.152 190.982 175.35L184.337 171.042L180.091 177.979L174.991 174.673C163.004 186.509 147.027 193.343 130.091 193.879C113.154 194.415 96.4331 188.617 83.098 177.583C69.7629 166.549 60.74 151.046 57.7395 134.012C54.7389 116.978 57.9693 99.5981 66.8182 85.1651ZM106.861 154.747C102.114 151.679 98.0865 147.575 95.0839 142.744C92.0812 137.913 90.1822 132.483 89.5307 126.865C89.4519 126.04 89.212 125.235 88.8249 124.497C88.4379 123.758 87.9117 123.102 87.2771 122.566C86.6424 122.029 85.9123 121.624 85.1294 121.374C84.3465 121.123 83.5268 121.033 82.7182 121.108C81.9097 121.183 81.1286 121.421 80.421 121.81C79.7134 122.198 79.0934 122.728 78.5974 123.369C78.1015 124.01 77.7396 124.749 77.533 125.542C77.3264 126.336 77.2793 127.167 77.3943 127.989C78.2656 135.476 80.7979 142.712 84.7996 149.151C88.8013 155.589 94.1677 161.061 100.493 165.152C106.8 169.251 113.901 171.867 121.261 172.804C128.62 173.742 136.045 172.975 142.975 170.563C143.728 170.303 144.419 169.893 145.008 169.356C145.597 168.82 146.073 168.168 146.409 167.438C146.744 166.707 146.933 165.913 146.964 165.1C146.995 164.286 146.867 163.47 146.589 162.698C146.31 161.926 145.886 161.213 145.341 160.599C144.795 159.985 144.139 159.483 143.41 159.121C142.681 158.76 141.892 158.545 141.09 158.491C140.288 158.436 139.487 158.542 138.734 158.803C133.532 160.61 127.959 161.184 122.435 160.479C116.912 159.775 111.582 157.812 106.847 154.738M84.5673 48.2246L216.768 133.931L204.032 154.742L197.074 150.231L188.582 164.105L181.624 159.594L177.379 166.531L142.589 143.977L146.835 137.04L139.877 132.529L148.368 118.655L134.452 109.633L125.961 123.507L119.003 118.997L114.757 125.934L79.9675 103.379L84.2131 96.4423L77.2551 91.9314L85.7464 78.0574L78.7884 73.5465L83.034 66.6095L69.1181 57.5878L73.3637 50.6508L80.3217 55.1616L84.5673 48.2246ZM57.9146 60.0139L62.1602 53.0769L69.1181 57.5878L64.8725 64.5248L57.9146 60.0139ZM57.9146 60.0139L50.9566 55.5031L42.4654 69.3771L49.4233 73.888L57.9146 60.0139ZM103.908 80.1421L96.9499 75.6312L92.7043 82.5682L99.6623 87.0791L95.4167 94.0161L102.375 98.5269L106.62 91.5899L99.6623 87.0791L103.908 80.1421ZM166.529 120.74L159.572 116.229L155.326 123.166L162.284 127.677L158.038 134.614L164.996 139.125L169.242 132.188L162.284 127.677L166.529 120.74Z" fill="url(#paint1_linear_29_68)"/>
<defs>
<linearGradient id="paint0_linear_29_68" x1="104.5" y1="94" x2="40.5" y2="250" gradientUnits="userSpaceOnUse">
<stop stop-color="#7DCB80"/>
<stop offset="1" stop-color="#2F983D"/>
</linearGradient>
<linearGradient id="paint1_linear_29_68" x1="161.463" y1="49.6194" x2="72.9938" y2="186.083" gradientUnits="userSpaceOnUse">
<stop stop-color="#BAF0A9"/>
<stop offset="1" stop-color="#F9F77B"/>
</linearGradient>
</defs>
</svg>
