<svg width="238" height="234" viewBox="0 0 238 234" fill="none" xmlns="http://www.w3.org/2000/svg">
<ellipse cx="124.385" cy="115.008" rx="99.2193" ry="102.122" fill="url(#paint0_linear_25_4)"/>
<path d="M207.126 113.99L193.349 105.059C191.228 95.9939 187.372 87.3936 182.003 79.7537C176.634 72.1137 169.858 65.5853 162.067 60.5448C154.284 55.4871 145.636 52.0154 136.62 50.3301C127.605 48.6448 118.402 48.7791 109.541 50.7254L95.7709 41.7984C107.527 37.375 120.217 35.8262 132.832 37.2749C145.447 38.7235 157.64 43.1298 168.442 50.1438C179.25 57.1428 188.374 66.5574 195.089 77.6403C201.804 88.7232 205.925 101.169 207.126 113.99ZM66.8182 81.1651C68.2532 78.8204 69.803 76.5953 71.4674 74.4897L60.9748 67.6874C59.3511 69.8322 57.8222 72.0709 56.3882 74.4033C32.9355 112.723 45.0813 163.987 83.517 188.905C119.601 212.298 166.027 204.152 190.982 171.35L184.337 167.042L180.091 173.979L174.991 170.673C163.004 182.509 147.027 189.343 130.091 189.879C113.154 190.415 96.4331 184.617 83.098 173.583C69.7629 162.549 60.74 147.046 57.7395 130.012C54.7389 112.978 57.9692 95.5981 66.8182 81.1651ZM106.861 150.747C102.114 147.679 98.0865 143.575 95.0839 138.744C92.0812 133.913 90.1822 128.483 89.5307 122.865C89.4519 122.04 89.212 121.235 88.8249 120.497C88.4379 119.758 87.9117 119.102 87.2771 118.566C86.6424 118.029 85.9123 117.624 85.1294 117.374C84.3465 117.123 83.5268 117.033 82.7182 117.108C81.9097 117.183 81.1286 117.421 80.421 117.81C79.7134 118.198 79.0934 118.728 78.5974 119.369C78.1015 120.01 77.7396 120.749 77.533 121.542C77.3264 122.336 77.2793 123.167 77.3943 123.989C78.2656 131.476 80.7979 138.712 84.7996 145.151C88.8013 151.589 94.1676 157.061 100.493 161.152C106.8 165.251 113.901 167.867 121.261 168.804C128.62 169.742 136.045 168.975 142.975 166.563C143.728 166.303 144.419 165.893 145.008 165.356C145.597 164.82 146.073 164.168 146.409 163.438C146.744 162.707 146.933 161.913 146.964 161.1C146.995 160.286 146.867 159.47 146.589 158.698C146.31 157.926 145.886 157.213 145.341 156.599C144.795 155.985 144.139 155.483 143.41 155.121C142.681 154.76 141.892 154.545 141.09 154.491C140.288 154.436 139.487 154.542 138.734 154.803C133.532 156.61 127.959 157.184 122.435 156.479C116.912 155.775 111.582 153.812 106.847 150.738M84.5673 44.2246L216.768 129.931L204.032 150.742L197.074 146.231L188.582 160.105L181.624 155.594L177.379 162.531L142.589 139.977L146.835 133.04L139.877 128.529L148.368 114.655L134.452 105.633L125.961 119.507L119.003 114.997L114.757 121.934L79.9675 99.3793L84.2131 92.4422L77.2551 87.9314L85.7464 74.0574L78.7884 69.5465L83.034 62.6095L69.1181 53.5878L73.3637 46.6508L80.3217 51.1616L84.5673 44.2246ZM57.9146 56.0139L62.1602 49.0769L69.1181 53.5878L64.8725 60.5248L57.9146 56.0139ZM57.9146 56.0139L50.9566 51.5031L42.4654 65.3771L49.4233 69.888L57.9146 56.0139ZM103.908 76.1421L96.9499 71.6312L92.7043 78.5682L99.6623 83.0791L95.4167 90.0161L102.375 94.5269L106.62 87.5899L99.6623 83.0791L103.908 76.1421ZM166.529 116.74L159.572 112.229L155.326 119.166L162.284 123.677L158.038 130.614L164.996 135.125L169.242 128.188L162.284 123.677L166.529 116.74Z" fill="url(#paint1_linear_25_4)"/>
<defs>
<linearGradient id="paint0_linear_25_4" x1="104.5" y1="90" x2="40.5" y2="246" gradientUnits="userSpaceOnUse">
<stop stop-color="#7DCB80"/>
<stop offset="1" stop-color="#2F983D"/>
</linearGradient>
<linearGradient id="paint1_linear_25_4" x1="161.463" y1="45.6194" x2="72.9938" y2="182.083" gradientUnits="userSpaceOnUse">
<stop stop-color="#BAF0A9"/>
<stop offset="1" stop-color="#F9F77B"/>
</linearGradient>
</defs>
</svg>
