<svg width="71" height="71" viewBox="0 0 71 71" fill="none" xmlns="http://www.w3.org/2000/svg">
<path d="M50.4394 59.995C47.5402 62.8054 44.3748 62.3617 41.3277 61.0304C38.1031 59.6696 35.1448 59.6104 31.7427 61.0304C27.4827 62.8646 25.2344 62.3321 22.6902 59.995C8.25354 45.1146 10.3835 22.4537 26.7727 21.6254C30.7665 21.8325 33.5473 23.8146 35.8844 23.9921C39.3752 23.2821 42.7181 21.2408 46.4456 21.5071C50.9127 21.8621 54.2852 23.6371 56.504 26.8321C47.274 32.3642 49.4631 44.5229 57.924 47.925C56.2377 52.3625 54.0485 56.7704 50.4098 60.0246L50.4394 59.995ZM35.5885 21.4479C35.1448 14.8508 40.4994 9.4075 46.6527 8.875C47.5106 16.5075 39.7302 22.1875 35.5885 21.4479Z" fill="black"/>
</svg>
