<svg width="34" height="34" viewBox="0 0 34 34" fill="none" xmlns="http://www.w3.org/2000/svg">
<path d="M17 33C19.1012 33 21.1817 32.5861 23.1229 31.7821C25.0641 30.978 26.828 29.7994 28.3137 28.3137C29.7994 26.828 30.978 25.0641 31.7821 23.1229C32.5861 21.1817 33 19.1012 33 17C33 14.8989 32.5861 12.8183 31.7821 10.8771C30.978 8.93586 29.7994 7.17203 28.3137 5.68629C26.828 4.20055 25.0641 3.022 23.1229 2.21793C21.1817 1.41385 19.1012 1 17 1M17 33C14.8989 33 12.8183 32.5861 10.8771 31.7821C8.93586 30.978 7.17203 29.7994 5.68629 28.3137C4.20055 26.828 3.022 25.0641 2.21793 23.1229C1.41385 21.1817 1 19.1012 1 17C1 14.8989 1.41385 12.8183 2.21793 10.8771C3.022 8.93586 4.20055 7.17203 5.68629 5.68629C7.17203 4.20055 8.93586 3.022 10.8771 2.21793C12.8183 1.41385 14.8989 1 17 1M17 33C21.9084 33 24.0062 23.8213 24.0062 17C24.0062 10.1787 21.9084 1 17 1M17 33C12.0916 33 9.99378 23.8213 9.99378 17C9.99378 10.1787 12.0916 1 17 1M1.88889 11.6667H32.1111M1.88889 22.3333H32.1111" stroke="#D4D4D4" stroke-width="1.5" stroke-linecap="round" stroke-linejoin="round"/>
</svg>
